# xmcd
#
# Track frame offsets:
#	150
#	19635
#	43370
#	61950
#	91155
#	113837
#	134812
#	158952
#	185490
#	197907
#	207500
#
# Disc length: 3095 seconds
#
# Revision: 1
# Processed by: cddbd v1.5.1PL0 Copyright (c) Steve Scherf et al.
# Submitted via: CDex 1.50Beta5
#
DISCID=a30c150b
DTITLE=AUTO-MOD - Death of the 20 century
DYEAR=1900
DGENRE=
TTITLE0=EASTERN DECAY
TTITLE1=DANCE WITH THE 20 CENTURY
TTITLE2=AGE OF THE GENOCIDE
TTITLE3=20世紀少年の肖像
TTITLE4=HELL CHILD
TTITLE5=官能の下僕と朱き血の戯れ
TTITLE6=DEMON’S SEED
TTITLE7=親愛なる死者への口づけ
TTITLE8=MIND SUICIDE
TTITLE9=DOPE LOVE
TTITLE10=YOUR DIRTY PASSION
EXTD=
EXTT0=
EXTT1=
EXTT2=
EXTT3=
EXTT4=
EXTT5=
EXTT6=
EXTT7=
EXTT8=
EXTT9=
EXTT10=
PLAYORDER=
